<?xml version="1.0" standalone="no"?>
<!DOCTYPE svg PUBLIC "-//W3C//DTD SVG 1.1//EN" "http://www.w3.org/Graphics/SVG/1.1/DTD/svg11.dtd">
<svg t="1718433849756" class="icon" viewBox="0 0 1024 1024" version="1.1" xmlns="http://www.w3.org/2000/svg"
     p-id="37176" xmlns:xlink="http://www.w3.org/1999/xlink" width="200" height="200">

  <!-- 第一个路径元素，添加旋转动画 -->
  <path d="M464 696.32l2.08 128-121.12-41.44L224 824.32l0.96-56.32a256 256 0 0 0 247.68-194.88l68.16 20.96z"
        fill="#FDA736" p-id="37177">
    <animateTransform attributeName="transform" type="rotate" from="0 512 512" to="360 512 512" dur="5s"
                      repeatCount="indefinite" />
  </path>

  <!-- 第二个路径元素，添加不同的旋转动画 -->
  <path d="M472.64 573.12A256 256 0 0 1 224.96 768l1.12-71.68c-24.16-32-8-10.56-76.8-102.24L272 556.48l73.44-104.64c50.72 72.16 34.08 48 73.6 104.64z"
        fill="#FED370" p-id="37178">
    <animateTransform attributeName="transform" type="rotate" from="0 512 512" to="360 512 512" dur="6s"
                      repeatCount="indefinite" />
  </path>

  <!-- 第三个路径元素，添加平移动画 -->
  <path d="M344.96 800c-124.8 42.72-121.12 44.16-130.4 37.44s-6.72 0-4.64-135.68c-77.6-103.36-80-101.44-75.84-112s-2.4-6.4 128-46.4L272 528a16 16 0 0 1 26.24 18.56c-21.12 29.92 0 18.24-122.24 55.84 67.52 89.6 66.56 86.08 66.4 93.92L240 801.76 339.84 768c7.2-2.4 3.04-2.4 109.92 34.08v-17.44a16 16 0 0 1 32 0c0 41.12 2.88 48-5.92 53.6s-5.92 4.32-130.88-38.24zM448 720c0-37.12-10.88-15.04 66.08-117.44-107.36-33.12-104.48-30.72-108.96-37.12L344.96 480l-10.24 14.72a16 16 0 0 1-26.24-18.24c42.88-61.44 28.32-64 120 66.56l116.96 36a16 16 0 0 1 8.16 24.96l-73.6 97.6V720a16 16 0 0 1-32 0z"
        fill="#35214C" p-id="37179">
    <animateTransform attributeName="transform" type="translate" from="0 0" to="100 0" dur="4s"
                      repeatCount="indefinite" />
  </path>

  <!-- 其他路径元素，继续添加变换动画 -->
  <path d="M864 704a16 16 0 0 0-16-16 16 16 0 0 1 0-32 16 16 0 0 0 16-16 16 16 0 0 1 32 0 16 16 0 0 0 16 16 16 16 0 0 1 0 32 16 16 0 0 0-16 16 16 16 0 0 1-32 0z"
        fill="#FD7504" p-id="37180" />

  <!-- 可以继续为其他路径元素添加更多的动画 -->
</svg>